<?xml version="1.0" encoding="UTF-8" standalone="no"?>
<svg
   width="210mm"
   height="297mm"
   viewBox="0 0 210 297"
   version="1.1"
   id="svg8"
   inkscape:version="1.2.2 (b0a8486, 2022-12-01)"
   sodipodi:docname="logo.svg"
   xmlns:inkscape="http://www.inkscape.org/namespaces/inkscape"
   xmlns:sodipodi="http://sodipodi.sourceforge.net/DTD/sodipodi-0.dtd"
   xmlns:xlink="http://www.w3.org/1999/xlink"
   xmlns="http://www.w3.org/2000/svg"
   xmlns:svg="http://www.w3.org/2000/svg"
   xmlns:rdf="http://www.w3.org/1999/02/22-rdf-syntax-ns#"
   xmlns:cc="http://creativecommons.org/ns#"
   xmlns:dc="http://purl.org/dc/elements/1.1/">
  <defs
     id="defs2">
    <linearGradient
       inkscape:collect="always"
       id="linearGradient909">
      <stop
         style="stop-color:#aade87;stop-opacity:1;"
         offset="0"
         id="stop905" />
      <stop
         style="stop-color:#e5ff80;stop-opacity:1"
         offset="1"
         id="stop907" />
    </linearGradient>
    <linearGradient
       inkscape:collect="always"
       id="linearGradient901">
      <stop
         style="stop-color:#71c837;stop-opacity:1;"
         offset="0"
         id="stop897" />
      <stop
         style="stop-color:#e5ff80;stop-opacity:1"
         offset="1"
         id="stop899" />
    </linearGradient>
    <linearGradient
       inkscape:collect="always"
       id="linearGradient893">
      <stop
         style="stop-color:#5aa02c;stop-opacity:1;"
         offset="0"
         id="stop889" />
      <stop
         style="stop-color:#ddff55;stop-opacity:1"
         offset="1"
         id="stop891" />
    </linearGradient>
    <inkscape:path-effect
       effect="bspline"
       id="path-effect848"
       is_visible="true"
       lpeversion="1"
       weight="33.333333"
       steps="2"
       helper_size="0"
       apply_no_weight="true"
       apply_with_weight="true"
       only_selected="false" />
    <linearGradient
       gradientUnits="userSpaceOnUse"
       y2="193.91257"
       x2="163.49779"
       y1="-246.17339"
       x1="-202.6953"
       id="linearGradient895-3"
       xlink:href="#linearGradient893"
       inkscape:collect="always"
       gradientTransform="matrix(1.1448646,0.24172649,-0.24244437,1.1323933,466.27574,1191.8073)" />
    <linearGradient
       gradientUnits="userSpaceOnUse"
       y2="207.03119"
       x2="134.09499"
       y1="-83.232666"
       x1="456.54028"
       id="linearGradient903-9"
       xlink:href="#linearGradient901"
       inkscape:collect="always"
       gradientTransform="matrix(1.1707817,-0.07909588,0.07930668,1.1676695,446.63682,1134.956)" />
    <linearGradient
       gradientUnits="userSpaceOnUse"
       y2="-17.223326"
       x2="159.90569"
       y1="-216.22176"
       x1="248.51936"
       id="linearGradient911-1"
       xlink:href="#linearGradient909"
       inkscape:collect="always"
       gradientTransform="matrix(1.2067532,0,0,1.1969245,460.84327,1070.5668)" />
    <filter
       inkscape:collect="always"
       style="color-interpolation-filters:sRGB"
       id="filter1002"
       x="-0.035314323"
       width="1.0706286"
       y="-0.037085582"
       height="1.0741712">
      <feGaussianBlur
         inkscape:collect="always"
         stdDeviation="14.748266"
         id="feGaussianBlur1004" />
    </filter>
  </defs>
  <sodipodi:namedview
     id="base"
     pagecolor="#ffffff"
     bordercolor="#666666"
     borderopacity="1.0"
     inkscape:pageopacity="0.0"
     inkscape:pageshadow="2"
     inkscape:zoom="0.075580457"
     inkscape:cx="2632.9558"
     inkscape:cy="4452.2091"
     inkscape:document-units="mm"
     inkscape:current-layer="layer1"
     inkscape:document-rotation="0"
     showgrid="false"
     showborder="false"
     inkscape:object-nodes="false"
     inkscape:snap-nodes="false"
     inkscape:window-width="1252"
     inkscape:window-height="985"
     inkscape:window-x="0"
     inkscape:window-y="25"
     inkscape:window-maximized="0"
     inkscape:showpageshadow="0"
     inkscape:pagecheckerboard="0"
     inkscape:deskcolor="#d1d1d1" />
  <metadata
     id="metadata5">
    <rdf:RDF>
      <cc:Work
         rdf:about="">
        <dc:format>image/svg+xml</dc:format>
        <dc:type
           rdf:resource="http://purl.org/dc/dcmitype/StillImage" />
        <dc:title />
      </cc:Work>
    </rdf:RDF>
  </metadata>
  <g
     inkscape:label="Layer 1"
     inkscape:groupmode="layer"
     id="layer1">
    <rect
       style="opacity:1;mix-blend-mode:normal;fill:#8dd35f;stroke:none;stroke-width:1.90888;stroke-linecap:round;stroke-linejoin:round;paint-order:stroke markers fill;filter:url(#filter1002)"
       id="rect961-6-1"
       width="1002.3083"
       height="954.43665"
       x="103.58899"
       y="589.16553"
       ry="243.25331"
       transform="matrix(0.88062517,0,0,0.92166566,8.9335627,147.58836)"
       inkscape:export-filename="/Users/mbruno/Physics/tomino/src-tauri/icons/1024x1024.png"
       inkscape:export-xdpi="24.772503"
       inkscape:export-ydpi="24.772503" />
    <rect
       ry="208.72923"
       y="721.33746"
       x="131.63623"
       height="818.97687"
       width="818.97687"
       id="rect961-6"
       style="opacity:1;fill:#2d5016;stroke:none;stroke-width:1.59837;stroke-linecap:round;stroke-linejoin:round;paint-order:stroke markers fill"
       inkscape:export-filename="/Users/mbruno/Physics/tomino/src-tauri/icons/1024x1024.png"
       inkscape:export-xdpi="24.772503"
       inkscape:export-ydpi="24.772503" />
    <g
       id="g1069"
       transform="matrix(0.89997456,0,0,0.89997456,-4.897629,190.18512)"
       inkscape:export-filename="/Users/mbruno/Physics/tomino/src-tauri/icons/1024x1024.png"
       inkscape:export-xdpi="24.772503"
       inkscape:export-ydpi="24.772503">
      <path
         id="rect839-7"
         style="opacity:1;fill:url(#linearGradient895-3);fill-opacity:1;stroke:none;stroke-width:2.32813;stroke-linecap:round;stroke-linejoin:round;paint-order:stroke markers fill"
         d="m 231.18428,844.60663 c -23.23857,-4.8933 -37.48592,-7.07443 -37.48592,-7.07443 0,0 2.57497,296.3628 88.39387,427.0396 90.33573,137.5549 283.7757,146.1308 300.38056,148.1664 -27.88191,-79.5847 -59.68961,-187.645 -135.06739,-300.641 C 332.91989,940.47559 228.44987,864.96002 228.44987,864.96002 c 0,0 128.71791,68.95574 230.40464,215.55418 74.52708,107.4434 121.08419,200.9986 149.01802,280.8744 16.3403,-74.3751 58.62404,-222.5276 -6.08673,-321.0629 C 528.88143,929.31393 314.17866,862.08535 231.18428,844.60663 Z"
         inkscape:connector-curvature="0"
         sodipodi:nodetypes="scscscscss" />
      <path
         inkscape:connector-curvature="0"
         d="m 990.60484,949.09799 c 18.07716,-2.44288 29.11396,-3.25793 29.11396,-3.25793 0,0 -28.95246,241.20424 -102.08977,343.99354 -76.98673,108.1996 -212.93689,91.1468 -225.77105,91.6753 34.88527,-116.4188 62.22386,-155.1044 109.80116,-219.1794 99.19264,-133.5883 189.8872,-196.09088 189.8872,-196.09088 0,0 -102.50031,48.37978 -188.69381,163.31298 -63.17204,84.2352 -104.13311,158.8706 -130.0544,223.4227 -8.30297,-63.0814 -36.71428,-178.4432 18.43406,-255.9502 62.1312,-87.321 234.81129,-139.20099 299.37265,-147.92611 z"
         style="opacity:1;fill:url(#linearGradient903-9);fill-opacity:1;stroke:none;stroke-width:1.86515;stroke-linecap:round;stroke-linejoin:round;paint-order:stroke markers fill"
         id="rect839-2-75"
         sodipodi:nodetypes="scscscscss" />
      <path
         id="rect839-2-7-2"
         style="opacity:1;fill:url(#linearGradient911-1);fill-opacity:1;stroke:none;stroke-width:1.26977;stroke-linecap:round;stroke-linejoin:round;paint-order:stroke markers fill"
         d="m 825.6848,682.96426 c 11.91565,-3.59141 19.26449,-5.33055 19.26449,-5.33055 0,0 12.34842,158.84334 -25.70838,235.63981 -40.05986,80.83868 -147.41843,94.60098 -156.00985,96.34248 10.40337,-45.8994 29.78718,-101.55617 63.30796,-168.0038 50.91214,-100.92225 101.6533,-147.26178 101.6533,-147.26178 0,0 -63.79055,43.5044 -109.31933,129.851 -33.36843,63.28419 -61.9629,124.01166 -72.37813,170.07718 C 634.0063,952.898 604.67088,881.25272 633.3672,823.34528 665.697,758.10559 783.12899,695.79066 825.6848,682.96426 Z"
         inkscape:connector-curvature="0"
         sodipodi:nodetypes="scscscscss" />
    </g>
  </g>
</svg>
